<?xml version="1.0" encoding="UTF-8"?>
<svg width="1024px" height="1024px" viewBox="0 0 1024 1024" version="1.1" xmlns="http://www.w3.org/2000/svg" xmlns:xlink="http://www.w3.org/1999/xlink">
    <title>Artboard</title>
    <defs>
        <filter color-interpolation-filters="auto" id="filter-1">
            <feColorMatrix in="SourceGraphic" type="matrix" values="0 0 0 0 0.202823 0 0 0 0 0.202823 0 0 0 0 0.202823 0 0 0 1.000000 0"></feColorMatrix>
        </filter>
    </defs>
    <g id="Artboard" stroke="none" stroke-width="1" fill="none" fill-rule="evenodd">
        <rect fill="#FFFFFF" x="0" y="0" width="1024" height="1024"></rect>
        <g filter="url(#filter-1)" id="SVG_c4m__marmite_noir">
            <g transform="translate(1.000000, 120.000000)">
                <path d="M1023,352.481323 C1022.84223,353.095896 1022.72909,353.721076 1022.66148,354.351971 C1021.9252,369.29176 1016.14496,382.157755 1006.31941,393.220817 C995.258258,405.672052 981.209664,412.595988 964.799891,414.839073 C956.200828,416.102251 947.436822,415.650598 939.013104,413.510151 C928.857494,410.860772 920.817636,404.969501 914.301119,396.902861 C907.784603,388.836221 903.739285,379.694594 902.935299,369.325618 C901.61507,352.447465 910.069615,338.735024 926.073164,331.701049 C937.125853,326.850908 948.220857,326.622367 958.909637,332.665999 C968.633634,338.167904 973.466011,346.598516 972.636637,357.932442 C972.317649,361.599181 971.174934,365.146547 969.293748,368.309882 C969.920011,366.10912 970.690145,363.942215 971.138684,361.699131 C973.229047,351.194724 969.869233,342.696396 961.228501,336.466546 C955.432398,332.307151 948.33608,330.366816 941.230412,330.998498 C931.835857,331.59483 923.014236,335.722175 916.535354,342.5525 C909.426426,349.823479 906.56593,358.711173 907.9454,368.792357 C909.993448,383.757539 917.957139,394.896782 930.744745,402.650236 C936.668851,406.230707 943.236145,407.508842 950.065793,407.728918 C964.90991,408.160606 978.518428,404.478562 990.290472,395.201503 C1002.52798,385.560471 1009.63691,372.872231 1011.34644,357.39918 C1012.5905,346.149899 1010.39012,335.391558 1005.42233,325.234194 C1002.4316,319.194627 998.664709,313.571773 994.217308,308.508402 C985.808915,298.851712 975.656793,290.865873 964.29211,284.968711 C955.661056,280.329523 946.257682,277.300649 936.541906,276.030231 C920.555283,274.091867 906.278187,277.892414 894.47229,289.234804 C889.102502,294.558577 884.88766,300.932357 882.090909,307.958211 C879.090445,315.396881 877.078826,323.197161 876.107562,331.159323 C873.890254,347.394177 874.584221,363.612101 876.420693,379.83849 C879.035763,403.039602 883.72427,425.868277 888.979798,448.586915 C892.009555,461.689914 895.369369,474.725198 898.449904,487.828197 C901.95359,502.725664 905.07644,517.707776 906.912913,532.909964 C908.646993,546.512551 909.292232,560.231919 908.842479,573.93725 C908.466741,586.037191 906.959393,598.075391 904.340158,609.894318 C899.262353,632.062765 890.071526,652.360564 876.107562,670.398349 C867.778076,680.981985 858.326111,690.631409 847.917281,699.177547 C830.703522,713.567146 811.661753,725.002645 791.358995,734.4236 C773.287457,742.692172 754.583857,749.502375 735.426972,754.789114 C719.86639,759.225786 704.090822,762.87019 688.16107,765.70828 C674.671035,768.069868 661.164073,770.380668 647.589408,772.208993 C633.058422,774.164286 618.459732,775.594781 603.877969,777.135315 C595.186459,778.049478 586.478023,778.828209 577.769588,779.496902 C571.845482,779.979377 565.921376,780.284098 559.99727,780.64807 C552.558286,781.096687 545.110838,781.494517 537.671854,781.968527 C530.554464,782.391751 523.437073,782.814974 516.319683,783.288985 C515.175471,783.443191 514.044056,783.680829 512.93448,784 L510.522523,784 C509.743185,783.683696 508.931532,783.453782 508.102102,783.314378 C495.627628,782.552576 483.136227,781.900811 470.670216,781.079758 C457.874147,780.233311 445.086541,779.296576 432.307398,778.269554 C422.151788,777.42875 412.021567,776.449693 401.916735,775.332383 C390.297024,774.02039 378.677314,772.649146 367.108381,770.939323 C354.354627,769.051746 341.609337,767.020273 328.957139,764.548648 C312.124566,761.298375 295.474575,757.164825 279.076167,752.165129 C263.594593,747.514562 248.440386,741.836408 233.714442,735.168473 C219.543072,728.760017 205.951728,721.139054 193.092001,712.390584 C180.890423,704.072675 169.550112,694.556511 159.239967,683.983823 C149.602623,674.107941 141.331251,662.985493 134.646465,650.913139 C125.785695,634.830646 120.25935,617.622379 117.195741,599.533807 C114.872478,585.041697 114.035938,570.350071 114.699154,555.687853 C115.278188,542.716527 116.728634,529.798823 119.040677,517.022154 C122.493584,497.03754 127.562927,477.416899 132.369915,457.770864 C136.609883,440.604919 140.299754,423.371259 143.380289,406.010631 C145.470652,394.160373 147.222495,382.310115 148.153426,370.290568 C149.097066,359.18545 149.097066,348.020281 148.153426,336.915163 C147.112476,325.674347 144.869779,314.704394 139.876604,304.487778 C134.265629,293.001493 125.921103,284.173051 113.92902,279.255194 C105.042861,275.581614 95.7843298,274.785953 86.3226863,276.140269 C68.9058149,278.628823 53.9347529,286.390742 40.5631996,297.555378 C31.7955228,304.851751 24.3311493,313.282363 19.0756211,323.473584 C12.8299208,335.569312 10.020202,348.384519 12.956866,361.859956 C17.8823369,384.502413 31.8547639,398.942798 54.01092,405.485834 C61.671912,407.645342 69.6775043,408.306363 77.5888616,407.432662 C87.0843571,406.535428 95.1072891,402.489411 101.843844,395.904054 C108.842752,389.064762 113.582037,380.905013 115.30849,371.187801 C117.22113,360.42946 114.902266,350.703784 107.243243,342.738718 C101.018151,336.1158 92.5943047,331.987402 83.5468195,331.125465 C76.390638,330.279458 69.165406,331.984919 63.1425061,335.941749 C55.9489489,340.631065 51.962872,347.34339 51.7343707,355.977149 C51.6666667,358.575741 52.3352443,361.208191 52.8599509,363.789855 C53.1900082,365.415033 53.8755119,366.972495 54.3240513,368.589209 C52.5411384,365.705146 51.4196826,362.461613 51.040404,359.092074 C49.2716353,346.573123 56.3043953,336.517333 66.5869506,331.624869 C75.3546274,327.451885 84.3592684,327.189487 93.4908545,330.202838 C103.866503,333.639413 112.109473,339.843869 117.111111,349.764228 C120.246365,355.963198 121.457632,362.957929 120.589408,369.850415 C118.702157,386.034482 110.704614,398.561897 97.3923014,407.754312 C92.5437866,411.071346 87.0354264,413.30048 81.2448812,414.288882 C65.8591319,417.031371 50.998089,415.253832 36.99181,408.304502 C23.0680684,401.53668 12.0564992,389.967125 5.98334698,375.724757 C3.30346376,369.630543 1.57109296,363.162289 0.846300846,356.544269 C0.661747157,355.806363 0.377000038,355.09722 0,354.436616 L0,343.82217 C0.377166283,343.252263 0.662729185,342.626773 0.846300846,341.968451 C2.58121758,325.742062 9.39393939,311.758758 19.5918646,299.248272 C28.3997771,288.470542 39.0860188,279.376921 51.1334971,272.407437 C61.4650859,266.193133 72.8795585,261.991307 84.7739558,260.023918 C106.777778,256.63813 126.242697,261.716812 142.728638,277.122147 C152.266448,286.043698 158.478296,297.047509 162.684412,309.287133 C165.967615,319.096184 168.097709,329.25423 169.031668,339.556077 C170.307721,353.528992 170.403976,367.58462 169.31941,381.573706 C168.380016,395.25229 166.6451,408.846228 164.360087,422.363987 C162.599782,432.783749 160.974884,443.228905 158.986077,453.61481 C156.675676,465.803646 154.026754,477.933232 151.589408,490.113604 C148.280371,506.703965 145.529894,523.378971 144.285831,540.265588 C142.694786,561.917702 143.921922,583.34974 149.778324,604.358555 C155.342421,624.888037 166.280111,643.561874 181.463827,658.454982 C194.47475,671.111368 209.231889,681.837654 225.285285,690.306782 C243.506143,700.083245 262.725635,707.311902 282.579853,712.974633 C296.998811,717.034865 311.61322,720.365628 326.367458,722.954243 C341.990172,725.747518 357.68059,727.8721 373.497952,729.488814 C384.330603,730.606124 395.205569,731.444106 406.080535,732.155122 C420.631268,733.120071 435.190463,733.943946 449.758122,734.626747 C459.118209,735.066899 468.503686,735.160009 477.872236,735.388549 C487.240786,735.61709 496.778597,735.921811 506.24024,735.997991 C514.085449,736.065707 521.947584,735.904882 529.801256,735.76945 C538.772045,735.608625 547.751297,735.439336 556.722086,735.151544 C567.853763,734.78475 578.982619,734.344598 590.108654,733.831087 C597.149877,733.509437 604.202384,733.105964 611.266175,732.620668 C619.500683,732.070477 627.743653,731.537215 635.961234,730.766949 C646.252252,729.810464 656.543271,728.760869 666.800437,727.499663 C684.540258,725.379607 702.160526,722.356692 719.592684,718.44268 C736.80193,714.622576 753.703873,709.529898 770.159159,703.206635 C794.625717,693.667177 817.230412,681.029723 836.898444,663.423626 C855.231539,647.249595 868.296448,625.950588 874.406497,602.276295 C877.670711,589.544193 879.468088,576.480428 879.763582,563.339733 C880.207833,544.65873 878.670253,525.983272 875.176631,507.626592 C872.316134,491.950394 869.108654,476.308054 866.028119,460.699571 C863.150696,446.072967 860.459459,431.429434 858.343707,416.684327 C856.346437,402.717952 854.55228,388.751577 853.866776,374.632841 C853.020475,356.857454 853.528256,339.217499 857.404313,321.780691 C860.214032,309.143237 864.733279,297.233728 872.451542,286.712392 C883.571936,271.586384 898.348348,262.385505 917.026208,259.685339 C928.265083,258.068625 939.250068,259.414476 950.031941,262.647904 C964.412379,267.033805 977.716303,274.380339 989.088725,284.215373 C999.379743,292.95917 1008.18974,302.947245 1014.41005,315.042972 C1019.15779,324.252316 1022.43298,333.901811 1022.65302,344.38929 C1022.71703,345.017301 1022.82735,345.639723 1022.98307,346.251473 L1023,352.481323 Z" id="Path" fill="#000000" fill-rule="nonzero"></path>
                <path d="M514.842531,0.0168768656 L522.468808,1.01261194 C529.821335,1.82373125 536.966311,3.95059919 543.559701,7.29080595 C555.846481,13.7799608 562.362711,24.0664104 563.269391,37.8463712 C563.735441,44.8755857 562.422027,51.685401 560.413774,58.3939551 C557.337842,68.7310353 552.550235,78.2833412 546.974579,87.4727945 L544.432486,91.692011 C547.364366,91.4810501 549.821722,91.3207199 552.270605,91.1350744 C560.03246,90.5359457 567.785842,89.860871 575.556171,89.3461266 C587.00406,88.5866677 598.435002,87.8356472 609.908312,87.2618337 C624.595957,86.5192516 639.266654,85.8807436 653.920405,85.3463095 C663.783723,85.0087722 673.655515,84.9834569 683.518834,84.8062498 C686.493082,84.7556192 689.450382,84.6037274 692.42463,84.6374811 C704.541937,84.772496 716.667718,84.7303039 728.776551,85.2028561 C742.885164,85.7597927 756.976829,86.7048972 771.060021,87.6415632 C782.838382,88.417899 794.548955,89.7792995 806.191738,91.7257647 C819.495354,93.9366341 832.671866,96.70444 845.297592,101.624046 C851.010039,103.755977 856.471272,106.503544 861.58393,109.817765 C866.121398,112.714873 870.071023,116.436255 873.226713,120.787727 C879.005737,129.057391 878.065163,138.685643 870.964251,145.908942 C866.380011,150.583834 860.795882,153.621669 854.864333,156.20383 C844.475649,160.743707 833.595493,163.798419 822.596707,166.456526 C804.33601,170.869826 785.88042,174.219884 767.289251,176.87799 C754.578789,178.692253 741.868327,180.303994 729.157865,181.94105 C719.040338,183.206815 708.92281,184.421949 698.788335,185.476753 C687.620076,186.641257 676.426396,187.64543 665.241189,188.649604 C654.055983,189.653777 642.701304,190.632636 631.422887,191.543986 C623.025509,192.210623 614.619657,192.767559 606.213805,193.341373 C597.175254,193.965817 588.136703,194.570571 579.098153,195.155636 C572.69208,195.56068 566.286007,195.934784 559.879934,196.277947 C546.898316,196.995214 533.916698,197.720919 520.901185,198.379117 C510.885341,198.885423 500.866672,199.33266 490.845179,199.720828 C477.852263,200.227134 464.859346,200.688435 451.86643,201.104731 C439.670035,201.492899 427.476466,201.827623 415.28572,202.108904 C406.303661,202.322678 397.318776,202.491447 388.331068,202.61521 C377.900015,202.767102 367.460489,202.868363 357.029437,202.986501 C355.983932,203.038725 354.936357,202.939236 353.919611,202.691156 L372.120992,201.087854 C385.232539,199.96273 398.341262,198.815103 411.447161,197.644973 C424.084185,196.519849 436.712734,195.394725 449.332811,194.2696 C465.314098,192.801313 481.295386,191.30771 497.276673,189.788792 C508.538142,188.72555 519.808085,187.696061 531.061081,186.582188 C544.16133,185.282669 557.244632,183.898766 570.336408,182.548617 C580.555619,181.502251 590.77483,180.506516 600.977094,179.392643 C610.95057,178.295647 620.907098,177.063636 630.863627,175.90757 C640.10837,174.835889 649.361586,173.823278 658.597855,172.700966 C667.681598,171.595531 676.748394,170.414151 685.81519,169.23277 C693.61094,168.220158 701.40669,167.215985 709.185493,166.102111 C719.1166,164.684455 729.047708,163.317429 738.936447,161.663496 C754.282211,159.089774 769.611028,156.431667 784.897477,153.5626 C801.531235,150.44038 818.037888,146.744347 834.112385,141.34375 C839.967672,139.377595 845.780589,137.293302 851.059668,134.052944 C851.907032,133.512884 852.754396,132.913755 853.932232,132.145858 C852.915395,131.234507 852.101926,130.390664 851.169825,129.698712 C846.636427,126.323339 841.450559,124.154662 836.163007,122.239138 C826.621687,118.796257 816.673632,116.846979 806.759472,115.074908 C793.081538,112.689197 779.273469,111.114066 765.408102,110.357824 C754.392369,109.716503 743.300372,109.024552 732.233797,108.82203 C714.100205,108.490118 695.963788,108.380418 677.824547,108.492931 C665.54624,108.552 653.250987,109.007675 641.006575,109.471789 C625.931968,110.045602 610.85736,110.627854 595.808173,111.522328 C578.013527,112.568694 560.21888,113.859774 542.492023,115.218362 C530.247611,116.155028 518.037094,117.387039 505.80963,118.475597 C501.827018,118.838449 497.844407,119.15911 493.319482,119.547278 C494.048216,118.585296 494.488845,117.969291 495.014211,117.395477 C501.293179,109.919026 507.724673,102.543836 513.834168,94.949246 C522.203239,84.7153447 529.314972,73.5226617 535.018271,61.608998 C537.919275,55.8063741 539.881117,49.5836132 540.831189,43.1710223 C541.010308,41.9076974 541.092458,40.6326125 541.076924,39.3568506 C540.932873,33.5090167 538.39078,29.1463469 533.086281,26.3954178 C528.842372,24.2849127 524.279397,22.8823681 519.579297,22.2437089 C511.04634,20.9104365 502.471015,20.9948208 493.887216,21.5264421 C481.151829,22.3402359 468.500884,24.1545154 456.052408,26.9523544 C446.93477,28.9775783 438.037447,31.6609999 429.843436,36.2346305 C427.552388,37.5549613 425.390632,39.0861995 423.386521,40.8082611 C417.717655,45.5337835 415.921243,51.5250708 417.810865,58.6639849 C419.285279,64.2333506 422.047686,69.1529569 425.36088,73.853164 C431.872657,82.846285 439.583906,90.9144224 448.282079,97.83519 C455.594832,103.818039 463.229582,109.41272 470.711808,115.184608 C471.32191,115.65716 471.88117,116.171905 472.78785,116.94824 C470.838912,117.133886 469.398393,117.311093 467.864664,117.403916 C458.086082,117.960852 448.3075,118.433405 438.537392,119.091602 C424.979566,119.974825 411.45281,120.933993 397.957124,121.969108 C389.161484,122.644183 380.365845,123.403641 371.587153,124.331869 C358.825849,125.69327 346.073019,127.158744 333.328662,128.728293 C322.745084,130.03625 312.144559,131.43703 301.628771,133.040332 C291.799347,134.525496 282.012291,136.348197 272.208288,137.993692 C256.862524,140.567414 241.643864,143.790895 226.501467,147.343475 C208.944083,151.436115 191.53075,156.144761 174.413995,161.806949 C170.914381,162.971453 167.499503,164.338479 164.042258,165.646436 C163.693018,165.798828 163.286786,165.736338 163,165.486106 C165.991195,164.093764 168.931549,162.600162 171.965112,161.309082 C187.913664,154.582076 204.205417,148.692404 220.773286,143.664319 C237.178255,138.643451 253.667961,133.934806 270.403403,130.162826 C287.689631,126.272709 305.018227,122.568237 322.414612,119.192863 C335.319968,116.661334 348.327007,114.678302 361.34252,112.788093 C376.815389,110.535031 392.3391,108.568877 407.854337,106.602722 C414.302778,105.758878 420.77664,105.201942 427.233555,104.50999 C427.936867,104.434044 428.631705,104.290591 429.606174,104.130261 C428.114813,102.645097 426.860714,101.33714 425.555774,100.09669 C418.2176,93.1096677 411.472582,85.6247778 406.27824,76.8994382 C402.888783,71.1697423 400.143323,65.1447013 399.109539,58.4614625 C397.414811,47.2102188 400.386235,37.4047599 408.02381,29.0450857 C414.675618,21.8049104 423.047576,17.1553339 432.029635,13.4593003 C443.731734,8.63251677 455.976146,5.81408021 468.415451,3.7297873 C477.497641,2.0772367 486.671364,0.969805187 495.886996,0.413483208 C496.436774,0.332454133 496.976428,0.1938585 497.496988,0 L514.842531,0.0168768656 Z" id="Path" fill="#000000" fill-rule="nonzero"></path>
                <path d="M723.724345,456.825501 C715.473584,457.096148 709.461468,459.69267 705.068976,465.23248 C698.505678,473.529509 692.196772,482.029522 685.794588,490.453417 C674.488304,505.322098 663.204632,520.207695 651.943573,535.110207 C650.996817,536.651849 649.081388,537.299342 647.389967,536.649513 C644.294872,535.80374 642.369977,533.64702 640.911466,530.957463 C640.122853,529.511192 640.826669,528.360942 641.657681,527.210691 C644.94781,522.671712 648.232285,518.121456 651.511108,513.559922 L684.726144,467.558354 C687.685564,463.464815 690.746741,459.438938 693.587445,455.26928 C698.480239,448.05484 699.523244,440.316021 695.970244,432.247351 C693.956215,427.267642 689.724419,423.513018 684.531111,422.098081 C679.021434,420.471262 673.128584,420.694122 667.758238,422.73241 C664.027429,424.096839 660.888654,426.713178 658.879979,430.13292 C653.012017,439.594295 647.144055,449.061309 641.276094,458.533962 L604.813327,517.39973 C603.651606,519.277345 603.007148,519.632569 600.836342,519.091275 C597.732767,518.380826 595.697635,516.291768 594.247604,513.56838 C593.654024,512.45196 594.247604,511.580815 594.773347,510.658923 C598.046516,504.594734 601.268807,498.505171 604.592855,492.474813 C613.259121,476.768817 621.891469,461.037448 630.710371,445.407572 C637.078636,434.099593 643.684332,422.910023 651.282155,412.354781 C653.769611,408.915709 656.531684,405.68279 659.541396,402.687601 C667.427529,394.813459 676.950247,392.445296 687.660125,395.363211 C691.576092,396.530507 695.425858,397.908311 699.192535,399.490581 C705.518401,401.977152 711.988422,403.719444 718.85699,403.550289 C725.263871,403.537674 731.445578,401.191709 736.240402,396.953264 C739.318538,394.263707 741.480865,390.931363 743.787347,387.725885 C754.692258,372.569641 765.56325,357.379567 776.247689,342.054169 C794.993508,315.164241 813.648877,288.223566 832.213796,261.232145 C846.063995,241.085844 859.770038,220.846507 873.331926,200.514135 C884.499708,183.69172 895.319822,166.640946 906.216253,149.640918 C909.250897,145.020209 911.875433,140.144156 914.059988,135.068257 C915.995374,130.22939 919.613854,126.247974 924.252603,123.853313 C926.45583,122.675044 928.909834,122.039933 931.409481,122 C938.278049,121.916494 943.442194,126.847348 943.950977,133.994126 C944.324085,139.195627 942.543345,143.754341 939.43129,147.830964 C938.49066,149.128998 937.41636,150.325239 936.225959,151.400125 C932.087858,154.910081 928.848608,159.198147 925.52456,163.410095 C908.471857,184.99421 892.216247,207.161908 875.994556,229.380352 C862.427014,247.987348 848.986669,266.594343 835.503925,285.260543 C821.826148,304.155101 808.089012,323.007371 794.504512,341.969591 C781.25072,360.475094 768.141083,379.08209 754.980568,397.655255 C753.505098,399.752771 752.122905,401.884117 750.740712,404.066211 C746.551733,410.485624 746.127748,417.420959 748.095041,424.601568 C750.011456,431.604564 753.852766,437.575718 758.414852,443.149359 C760.800234,445.958177 763.041738,448.885466 765.130785,451.92002 C769.006014,457.781224 770.90547,464.242926 769.955742,471.313585 C769.192568,476.98026 766.784329,482.029522 763.680754,486.765849 C758.592926,494.572329 752.411215,501.549953 746.178626,508.451456 C738.326412,517.129083 730.372441,525.713674 722.316713,534.20523 C715.532942,541.41967 708.486301,548.48187 701.532936,555.594817 C695.427542,561.845076 689.228872,568.010758 683.191316,574.328679 C681.889689,575.934854 679.658923,576.450994 677.781259,575.580422 C676.139601,574.928838 674.575432,574.097723 673.117417,573.102309 C671.285799,571.875938 670.912692,570.023697 671.955696,568.027673 C672.432491,567.191863 673.001326,566.411742 673.651639,565.701799 C688.202827,548.921672 702.762494,532.150003 717.330642,515.386791 C723.905246,507.819946 730.482677,500.25874 737.062934,492.703172 C739.764867,489.590186 741.349291,485.66767 741.565662,481.55589 C741.855862,477.311747 741.446226,473.048863 740.353063,468.936964 C738.919992,463.346407 735.468748,459.633466 729.906056,458.051871 C727.523257,457.375253 724.979343,457.079233 723.724345,456.825501 Z" id="Path" fill="#000000" fill-rule="nonzero"></path>
                <path d="M357.788941,564 C342.667605,564 327.84874,559.768272 315.007066,551.793795 C299.319813,542.270924 287.039517,529.345214 277.63225,513.702311 C270.563209,502.195179 265.713872,489.46777 263.3349,476.177966 C260.905702,462.777578 261.893751,448.98199 266.20793,436.0634 C268.106333,430.392001 269.877611,424.669814 269.657261,418.549782 C269.557848,413.898468 268.935263,409.273055 267.801233,404.760665 C266.926239,401.589203 265.528515,398.585439 263.665426,395.872652 C253.749658,380.983114 243.20674,366.542208 232.451946,352.262134 C217.798645,332.793153 203.128394,313.324172 188.127618,294.092205 C174.166443,276.208958 159.962318,258.511936 145.515243,241.00114 C131.650118,224.173168 117.471419,207.590676 103.216443,191.058971 C94.987204,181.5361 86.3935389,172.326426 77.8507239,163.082892 C75.6809742,160.834282 73.3374647,158.759654 70.8418866,156.878212 C66.4942039,153.441514 63.2567483,149.412281 62.2058464,143.766277 C60.7861744,134.404145 66.8489989,125.537033 76.0963958,123.450818 C84.5714107,121.622427 92.8515003,125.372322 96.8093322,134.395772 C99.9705128,141.59083 104.29277,148.015594 108.598078,154.465752 C121.971651,174.459549 135.980851,194.013177 150.303626,213.321328 C163.095249,230.583824 176.039421,247.733457 189.136145,264.770226 C200.967265,280.260763 212.891611,295.672296 224.909182,311.004824 C240.698135,331.22717 256.504038,351.441051 273.098117,371.028539 C276.106747,374.566815 279.344203,377.918865 282.420633,381.380958 C286.06489,385.452514 290.768523,387.179328 296.073882,387.619497 C303.531896,388.22896 310.752608,386.891526 318.007221,385.334008 C328.261989,383.133166 338.576082,381.10162 349.169851,381.86345 C362.085774,382.78611 374.14572,386.095837 384.264887,394.679118 C386.230042,396.328699 388.060764,398.131735 389.739747,400.07118 C392.028594,402.603595 392.778629,406.169024 391.70373,409.407338 C390.628831,412.645652 387.894783,415.057397 384.544563,415.722548 C381.508007,416.439843 378.317227,415.514606 376.137348,413.284692 C374.120929,411.334748 371.99295,409.50328 369.764137,407.799519 C362.835126,402.874379 354.538606,400.234538 346.034095,400.24894 C323.287155,399.910349 304.955698,409.069235 291.132949,426.997627 C285.514014,434.285798 282.335883,442.792896 280.759531,451.84174 C278.276351,466.138744 280.30188,479.944791 285.641139,493.319134 C292.251651,509.884698 302.311493,523.970082 316.371543,535.058936 C325.626259,542.355572 335.914928,547.662985 347.559598,549.973869 C360.635667,552.746733 374.268422,550.953937 386.180241,544.895004 C393.901021,541.077265 400.880181,535.91801 406.791477,529.65841 C413.495214,522.505676 417.444571,513.863141 419.436199,504.382594 C422.156679,491.448419 420.283701,478.869764 415.503792,466.680489 C413.97829,462.812087 412.054461,459.062192 410.418783,455.278438 C409.86839,454.137179 409.556937,452.895752 409.503482,451.63012 C409.653349,449.189734 411.358849,447.122992 413.728612,446.510065 C416.098375,445.897138 418.593854,446.877319 419.9108,448.938322 C420.977138,450.728243 421.936492,452.579621 422.78383,454.482749 C428.216315,466.071025 431.877521,478.184118 431.996171,491.02518 C432.174147,509.21598 426.148411,525.146686 413.656239,538.427917 C403.486221,549.288222 391.341525,557.151998 376.959425,561.367455 C370.711386,563.075418 364.266643,563.960428 357.788941,564 L357.788941,564 Z" id="Path" fill="#000000" fill-rule="nonzero"></path>
                <path d="M541.906159,581.269835 C547.536697,581.329009 552.626162,580.703463 557.183009,577.803977 C559.152275,576.588919 560.295281,574.390828 560.158909,572.081085 C560.158909,571.125861 560.074366,570.162183 560.099729,569.206959 C560.063337,566.427717 562.219706,564.111462 564.994746,563.948999 C567.76707,563.627805 570.290569,565.573642 570.684464,568.336268 C571.673613,574.253586 570.380111,579.655253 566.195252,584.135508 C562.551465,588.032485 557.85935,590.052826 552.719159,590.957331 C549.269821,591.574423 545.761302,591.853382 541.906159,592.326767 L541.906159,594.955747 C541.906159,609.044601 541.906159,623.133454 541.906159,637.222307 C541.93772,638.022227 541.892423,638.823329 541.770891,639.614595 C541.286993,642.311619 538.835324,644.201337 536.103662,643.982829 C533.372001,643.76432 531.25198,641.508908 531.203064,638.769263 C531.203064,638.211345 531.203064,637.644973 531.203064,637.078601 L531.203064,591.912555 L459.460203,591.912555 C458.741591,591.912555 458.014524,591.912555 457.295912,591.912555 C452.899696,591.650502 450.532503,587.288593 452.992693,583.586043 C455.672694,579.511546 458.606323,575.597663 461.446955,571.63306 C475.582479,551.908665 489.72364,532.203995 503.870438,512.519049 C513.113763,499.641837 522.362725,486.770261 531.617323,473.90432 C532.490115,472.446145 533.940217,471.426272 535.607734,471.09782 C537.003001,470.82356 538.449748,471.131694 539.612117,471.950689 C540.774486,472.769683 541.551377,474.028306 541.762437,475.434369 C541.892189,476.468727 541.937428,477.511936 541.897705,478.553642 L541.897705,581.269835 L541.906159,581.269835 Z M530.991708,581.050049 C531.465146,577.136166 531.279153,495.671598 530.814168,493.921763 C528.827417,495.908291 469.098061,579.300214 468.463991,581.050049 L530.991708,581.050049 Z" id="Shape" fill="#000000" fill-rule="nonzero"></path>
            </g>
        </g>
    </g>
</svg>